<?xml version="1.0" standalone="no"?>
<!DOCTYPE svg PUBLIC "-//W3C//DTD SVG 20010904//EN"
 "http://www.w3.org/TR/2001/REC-SVG-20010904/DTD/svg10.dtd">
<svg version="1.0" xmlns="http://www.w3.org/2000/svg"
 width="225.000000pt" height="225.000000pt" viewBox="0 0 225.000000 225.000000"
 preserveAspectRatio="xMidYMid meet">
<metadata>
Created by potrace 1.11, written by Peter Selinger 2001-2013
</metadata>
<g transform="translate(0.000000,225.000000) scale(0.100000,-0.100000)"
fill="#000000" stroke="none">
<path d="M0 1125 l0 -1125 1125 0 1125 0 0 1125 0 1125 -1125 0 -1125 0 0
-1125z m2040 180 l0 -325 -25 0 -25 0 -1 253 0 252 -52 -138 c-66 -177 -72
-177 -136 -17 l-46 114 -3 -232 -2 -232 -25 0 -25 0 0 299 c0 316 -1 311 45
311 7 0 36 -56 66 -130 29 -71 56 -127 60 -122 3 4 28 63 54 132 59 158 61
160 90 160 l25 0 0 -325z m-440 -30 l0 -295 -25 0 -25 0 0 289 c0 308 -2 293
43 300 4 0 7 -132 7 -294z m-164 -5 c29 -140 53 -263 53 -272 1 -13 -7 -18
-28 -18 -27 0 -30 4 -41 53 -6 28 -14 74 -17 100 l-6 48 -56 -3 -56 -3 -25
-95 c-25 -89 -28 -95 -55 -98 -20 -3 -26 0 -23 10 3 7 38 131 78 276 72 258
74 263 99 260 24 -3 26 -10 77 -258z m-356 -240 c79 0 86 -3 74 -34 -5 -13
-24 -16 -105 -16 l-99 0 0 244 0 245 23 3 22 3 3 -222 2 -223 80 0z m-201 421
c10 -7 11 -13 2 -30 -9 -16 -18 -20 -36 -15 -66 16 -116 -70 -116 -197 0 -127
42 -186 122 -174 31 4 38 2 42 -15 10 -38 -67 -54 -121 -26 -73 38 -96 98 -90
235 4 117 31 182 88 212 37 20 86 24 109 10z m-236 -52 c-7 -23 -10 -25 -75
-34 l-48 -6 0 -81 0 -81 46 6 c37 4 44 2 40 -10 -3 -8 -6 -19 -6 -24 0 -5 -18
-12 -40 -15 l-40 -7 0 -63 0 -64 71 0 c62 0 70 -2 67 -17 -3 -15 -17 -18 -96
-21 l-92 -3 0 209 0 209 63 10 c104 17 116 16 110 -8z m-298 -45 c21 -8 45
-56 45 -91 0 -15 -9 -42 -20 -60 l-19 -32 39 -95 39 -96 -29 0 c-27 0 -31 6
-60 84 l-32 84 -31 -13 c-31 -13 -32 -15 -35 -84 -3 -68 -4 -71 -27 -71 l-25
0 0 184 0 185 28 4 c46 7 109 7 127 1z"/>
<path d="M1341 1380 c-7 -25 -19 -69 -28 -98 -8 -30 -13 -56 -10 -59 3 -2 22
-1 44 4 l38 8 -16 95 -16 95 -12 -45z"/>
<path d="M247 1303 c-4 -3 -7 -33 -7 -65 0 -66 8 -71 61 -35 37 24 50 67 28
93 -12 14 -70 20 -82 7z"/>
</g>
</svg>
